<svg width="80" height="80" viewBox="0 0 80 80" fill="none" xmlns="http://www.w3.org/2000/svg">
<path fill-rule="evenodd" clip-rule="evenodd" d="M33.7506 24.7119C33.797 27.0673 36.5594 30.8544 38.4396 30.1385C39.2521 29.8152 39.2521 29.4689 38.37 26.9518C36.2576 20.971 33.7041 22.8184 33.7506 24.7119ZM49.0714 30.0462C48.4214 31.8704 50.6731 32.1937 52.2284 30.508C53.8069 28.7761 55.5014 26.1898 56.4068 24.4348C57.4049 22.7491 55.455 21.8947 53.8301 23.2802C51.9034 24.8966 49.5124 28.7761 49.0714 30.0462ZM17.0834 28.6376C15.6442 29.2149 20.4725 35.1726 22.4224 35.2188C24.6974 35.265 24.8831 34.7569 23.3046 32.6556C20.8207 29.3303 18.7315 27.9679 17.0834 28.6376ZM38.9039 37.2047C38.045 38.0591 37.0236 39.2368 36.629 39.791C33.2399 44.8251 33.1934 44.8713 31.6381 43.6936C28.0401 41.0149 22.1207 39.1906 23.2813 43.8552C24.001 46.6724 26.1366 51.822 26.6937 53.5308C28.1329 58.0337 28.899 58.7727 31.4524 58.1723C37.7897 56.6482 46.8429 56.602 53.3194 58.0568C54.9211 58.4263 55.014 58.2416 55.1765 55.0318C55.5014 48.5429 59.262 42.2157 59.262 40.1836C59.262 37.8975 54.9211 39.6063 49.0249 44.2016L48.4214 44.6634L47.5625 44.0861C45.7983 42.9084 44.9162 43.8321 45.9143 45.795C46.7268 47.3883 47.4 47.9194 49.1874 47.065C50.2088 46.5801 51.6248 45.6564 53.6212 44.2478C54.4104 43.6936 55.0604 43.301 55.0604 43.3703C55.0604 43.6936 53.6444 49.7437 53.6444 49.7668L50.116 49.4666C47.3071 49.3511 46.9822 50.829 49.8838 51.2678C50.1856 51.314 53.1569 51.6834 53.1569 51.6834C53.1569 51.6834 53.0408 52.9766 52.7158 53.7155C52.3676 54.4545 51.7873 54.6392 50.8356 54.3159C43.3841 51.8682 31.2435 54.847 31.2203 54.847C30.7793 54.9163 26.7401 44.3171 27.0651 43.9938C27.1115 43.9476 27.599 44.2478 28.1561 44.6634C34.447 49.2126 35.0969 49.074 39.2521 42.4466L41.202 39.3292L41.9681 40.4607C44.1966 43.7628 47.3536 42.3081 45.5894 39.8834C44.9858 39.0752 43.9876 37.8744 42.3859 36.0039C41.6663 35.1495 40.5985 35.519 38.9039 37.2047ZM69.1045 36.8583C68.2688 37.3433 63.9047 41.4998 63.394 42.285C62.303 44.0169 64.5779 44.4094 66.6438 42.8392C69.058 41.0149 72.4704 37.8744 72.4704 37.4587C72.4936 36.6274 70.2419 36.2117 69.1045 36.8583ZM11.605 47.9194C14.9942 48.7507 16.9441 48.9586 17.7101 48.5429C18.9637 47.8732 18.3833 47.3883 15.412 46.6494C15.1335 46.5801 12.3943 45.818 10.514 45.818C9.16764 45.818 6.17312 46.557 11.605 47.9194Z" fill="#003366" stroke="#003366"/>
<circle cx="40" cy="40" r="38.5" stroke="#003366" stroke-width="3"/>
</svg>
