<svg width="120" height="120" viewBox="0 0 120 120" fill="none" xmlns="http://www.w3.org/2000/svg">
<path d="M90 93.5416C90 85.4428 84.1414 74.9998 75 75H45C35.8586 74.9998 30 85.4428 30 93.5416M15 60C15 35.1472 35.1472 15 60 15C84.8528 15 105 35.1472 105 60C105 84.8528 84.8528 105 60 105C35.1472 105 15 84.8528 15 60ZM75 45C75 53.2843 68.2843 60 60 60C51.7157 60 45 53.2843 45 45C45 36.7157 51.7157 30 60 30C68.2843 30 75 36.7157 75 45Z" stroke="#003366" stroke-width="5" stroke-linecap="round" stroke-linejoin="round"/>
</svg>
